<?xml version="1.0" encoding="UTF-8" standalone="no"?>
<!-- Created with Inkscape (http://www.inkscape.org/) -->

<svg
   xmlns:dc="http://purl.org/dc/elements/1.1/"
   xmlns:cc="http://creativecommons.org/ns#"
   xmlns:rdf="http://www.w3.org/1999/02/22-rdf-syntax-ns#"
   xmlns:svg="http://www.w3.org/2000/svg"
   xmlns="http://www.w3.org/2000/svg"
   xmlns:sodipodi="http://sodipodi.sourceforge.net/DTD/sodipodi-0.dtd"
   xmlns:inkscape="http://www.inkscape.org/namespaces/inkscape"
   width="110"
   height="109"
   viewBox="0 0 29.104166 28.839584"
   version="1.1"
   id="svg8"
   inkscape:version="0.92.3 (2405546, 2018-03-11)"
   sodipodi:docname="auto_category.svg">
  <defs
     id="defs2" />
  <sodipodi:namedview
     id="base"
     pagecolor="#ffffff"
     bordercolor="#666666"
     borderopacity="1.0"
     inkscape:pageopacity="0.0"
     inkscape:pageshadow="2"
     inkscape:zoom="2.8"
     inkscape:cx="20.194544"
     inkscape:cy="44.872896"
     inkscape:document-units="mm"
     inkscape:current-layer="layer1"
     showgrid="false"
     units="px"
     inkscape:window-width="1920"
     inkscape:window-height="1046"
     inkscape:window-x="1589"
     inkscape:window-y="-11"
     inkscape:window-maximized="1" />
  <metadata
     id="metadata5">
    <rdf:RDF>
      <cc:Work
         rdf:about="">
        <dc:format>image/svg+xml</dc:format>
        <dc:type
           rdf:resource="http://purl.org/dc/dcmitype/StillImage" />
        <dc:title></dc:title>
      </cc:Work>
    </rdf:RDF>
  </metadata>
  <g
     inkscape:label="Layer 1"
     inkscape:groupmode="layer"
     id="layer1"
     transform="translate(0,-268.1604)">
    <circle
       style="opacity:1;fill:#6eb650;fill-opacity:1;fill-rule:nonzero;stroke:none;stroke-width:0.11905643;stroke-linecap:round;stroke-linejoin:round;stroke-miterlimit:4;stroke-dasharray:none;stroke-opacity:1;paint-order:normal"
       id="path828"
       cx="14.552083"
       cy="282.44791"
       r="14.552083" />
    <path
       id="path964"
       d="m 6.449213,280.1328 1.73633,-5.20901 h 12.73308 l 1.736329,5.20901 m -1.736329,5.78774 a 1.7363295,1.7363295 0 0 1 -1.73633,-1.73631 1.7363295,1.7363295 0 0 1 1.73633,-1.73635 1.7363295,1.7363295 0 0 1 1.736329,1.73635 1.7363295,1.7363295 0 0 1 -1.736329,1.73631 m -12.73308,0 a 1.7363295,1.7363295 0 0 1 -1.73633,-1.73631 1.7363295,1.7363295 0 0 1 1.73633,-1.73635 1.7363295,1.7363295 0 0 1 1.736329,1.73635 1.7363295,1.7363295 0 0 1 -1.736329,1.73631 m 14.376808,-11.57551 c -0.231525,-0.67139 -0.879743,-1.15754 -1.643728,-1.15754 H 8.185543 c -0.763985,0 -1.412216,0.48615 -1.643728,1.15754 l -2.407709,6.94531 v 9.26044 a 1.157553,1.157553 0 0 0 1.157552,1.15754 h 1.157555 a 1.157553,1.157553 0 0 0 1.157552,-1.15754 v -1.15758 h 13.890636 v 1.15758 a 1.157553,1.157553 0 0 0 1.157551,1.15754 h 1.157556 a 1.157553,1.157553 0 0 0 1.157552,-1.15754 v -9.26044 z"
       inkscape:connector-curvature="0"
       style="fill:#ffffff;stroke-width:1.15755296" />
  </g>
</svg>
