<?xml version="1.0" encoding="UTF-8" standalone="no"?>
<!-- Created with Inkscape (http://www.inkscape.org/) -->

<svg
   xmlns:dc="http://purl.org/dc/elements/1.1/"
   xmlns:cc="http://creativecommons.org/ns#"
   xmlns:rdf="http://www.w3.org/1999/02/22-rdf-syntax-ns#"
   xmlns:svg="http://www.w3.org/2000/svg"
   xmlns="http://www.w3.org/2000/svg"
   xmlns:sodipodi="http://sodipodi.sourceforge.net/DTD/sodipodi-0.dtd"
   xmlns:inkscape="http://www.inkscape.org/namespaces/inkscape"
   width="110"
   height="109"
   viewBox="0 0 29.104166 28.839584"
   version="1.1"
   id="svg8"
   inkscape:version="0.92.3 (2405546, 2018-03-11)"
   sodipodi:docname="beauty_category.svg">
  <defs
     id="defs2" />
  <sodipodi:namedview
     id="base"
     pagecolor="#ffffff"
     bordercolor="#666666"
     borderopacity="1.0"
     inkscape:pageopacity="0.0"
     inkscape:pageshadow="2"
     inkscape:zoom="2.8"
     inkscape:cx="20.194544"
     inkscape:cy="44.872896"
     inkscape:document-units="mm"
     inkscape:current-layer="layer1"
     showgrid="false"
     units="px"
     inkscape:window-width="1920"
     inkscape:window-height="1046"
     inkscape:window-x="1589"
     inkscape:window-y="-11"
     inkscape:window-maximized="1" />
  <metadata
     id="metadata5">
    <rdf:RDF>
      <cc:Work
         rdf:about="">
        <dc:format>image/svg+xml</dc:format>
        <dc:type
           rdf:resource="http://purl.org/dc/dcmitype/StillImage" />
        <dc:title></dc:title>
      </cc:Work>
    </rdf:RDF>
  </metadata>
  <g
     inkscape:label="Layer 1"
     inkscape:groupmode="layer"
     id="layer1"
     transform="translate(0,-268.1604)">
    <circle
       style="opacity:1;fill:#d61e5e;fill-opacity:1;fill-rule:nonzero;stroke:none;stroke-width:0.11905643;stroke-linecap:round;stroke-linejoin:round;stroke-miterlimit:4;stroke-dasharray:none;stroke-opacity:1;paint-order:normal"
       id="path828"
       cx="14.552083"
       cy="282.44791"
       r="14.552083" />
    <path
       id="path975"
       d="m 21.034383,274.11352 -5.556257,5.55625 1.852084,1.8521 6.482302,-6.48232 v -0.92603 m -9.260431,8.7974 a 0.46302143,0.46302143 0 0 1 -0.463019,-0.46302 0.46302143,0.46302143 0 0 1 0.463019,-0.46301 0.46302143,0.46302143 0 0 1 0.463023,0.46301 0.46302143,0.46302143 0 0 1 -0.463023,0.46302 m -5.5562567,6.94534 a 1.8520857,1.8520857 0 0 1 -1.852083,-1.8521 c 0,-1.02792 0.833438,-1.8521 1.852083,-1.8521 a 1.8520857,1.8520857 0 0 1 1.8520867,1.8521 c 0,1.02792 -0.833439,1.8521 -1.8520867,1.8521 m 0,-11.11252 a 1.8520857,1.8520857 0 0 1 -1.852083,-1.85209 c 0,-1.02792 0.833438,-1.8521 1.852083,-1.8521 a 1.8520857,1.8520857 0 0 1 1.8520867,1.8521 c 0,1.02791 -0.833439,1.85209 -1.8520867,1.85209 m 3.3707977,-0.3332 c 0.212976,-0.46301 0.333376,-0.97237 0.333376,-1.51872 a 3.7041712,3.7041712 0 0 0 -3.7041737,-3.70433 3.7041712,3.7041712 0 0 0 -3.70417,3.70416 3.7041712,3.7041712 0 0 0 3.70417,3.70416 c 0.546368,0 1.0556887,-0.1204 1.5187117,-0.33355 l 2.185462,2.18547 -2.185462,2.18547 C 10.051513,284.4204 9.5421923,284.3 8.9958243,284.3 a 3.7041712,3.7041712 0 0 0 -3.70417,3.70416 3.7041712,3.7041712 0 0 0 3.70417,3.70416 3.7041712,3.7041712 0 0 0 3.7041737,-3.70416 c 0,-0.54635 -0.1204,-1.05567 -0.333376,-1.51872 l 2.185459,-2.18544 6.482302,6.48229 h 2.778129 v -0.92603 z"
       inkscape:connector-curvature="0"
       style="fill:#ffffff;stroke-width:0.9260428" />
  </g>
</svg>
