<?xml version="1.0" encoding="UTF-8" standalone="no"?>
<!-- Created with Inkscape (http://www.inkscape.org/) -->

<svg
   xmlns:dc="http://purl.org/dc/elements/1.1/"
   xmlns:cc="http://creativecommons.org/ns#"
   xmlns:rdf="http://www.w3.org/1999/02/22-rdf-syntax-ns#"
   xmlns:svg="http://www.w3.org/2000/svg"
   xmlns="http://www.w3.org/2000/svg"
   xmlns:sodipodi="http://sodipodi.sourceforge.net/DTD/sodipodi-0.dtd"
   xmlns:inkscape="http://www.inkscape.org/namespaces/inkscape"
   width="110"
   height="109"
   viewBox="0 0 29.104166 28.839584"
   version="1.1"
   id="svg8"
   inkscape:version="0.92.3 (2405546, 2018-03-11)"
   sodipodi:docname="financial_category.svg">
  <defs
     id="defs2" />
  <sodipodi:namedview
     id="base"
     pagecolor="#ffffff"
     bordercolor="#666666"
     borderopacity="1.0"
     inkscape:pageopacity="0.0"
     inkscape:pageshadow="2"
     inkscape:zoom="2.8"
     inkscape:cx="20.194544"
     inkscape:cy="44.872896"
     inkscape:document-units="mm"
     inkscape:current-layer="layer1"
     showgrid="false"
     units="px"
     inkscape:window-width="1920"
     inkscape:window-height="1046"
     inkscape:window-x="1589"
     inkscape:window-y="-11"
     inkscape:window-maximized="1" />
  <metadata
     id="metadata5">
    <rdf:RDF>
      <cc:Work
         rdf:about="">
        <dc:format>image/svg+xml</dc:format>
        <dc:type
           rdf:resource="http://purl.org/dc/dcmitype/StillImage" />
        <dc:title></dc:title>
      </cc:Work>
    </rdf:RDF>
  </metadata>
  <g
     inkscape:label="Layer 1"
     inkscape:groupmode="layer"
     id="layer1"
     transform="translate(0,-268.1604)">
    <circle
       style="opacity:1;fill:#c2272d;fill-opacity:1;fill-rule:nonzero;stroke:none;stroke-width:0.11905643;stroke-linecap:round;stroke-linejoin:round;stroke-miterlimit:4;stroke-dasharray:none;stroke-opacity:1;paint-order:normal"
       id="path828"
       cx="14.552083"
       cy="282.44791"
       r="14.552083" />
    <path
       id="path1008"
       d="M 5.2916665,276.2743 H 23.8125 v 12.34722 H 5.2916665 V 276.2743 m 9.2604175,3.0868 a 3.0868056,3.0868056 0 0 1 3.086805,3.08681 3.0868056,3.0868056 0 0 1 -3.086805,3.0868 3.0868056,3.0868056 0 0 1 -3.086806,-3.0868 3.0868056,3.0868056 0 0 1 3.086806,-3.08681 m -5.1446745,-1.02892 a 2.0578704,2.0578704 0 0 1 -2.057871,2.05785 v 4.11576 a 2.0578704,2.0578704 0 0 1 2.057871,2.05785 H 19.696761 a 2.0578704,2.0578704 0 0 1 2.057872,-2.05785 v -4.11576 a 2.0578704,2.0578704 0 0 1 -2.057872,-2.05785 z"
       inkscape:connector-curvature="0"
       style="fill:#ffffff;stroke-width:1.02893507" />
  </g>
</svg>
