<?xml version="1.0" encoding="UTF-8" standalone="no"?>
<!-- Created with Inkscape (http://www.inkscape.org/) -->

<svg
   xmlns:dc="http://purl.org/dc/elements/1.1/"
   xmlns:cc="http://creativecommons.org/ns#"
   xmlns:rdf="http://www.w3.org/1999/02/22-rdf-syntax-ns#"
   xmlns:svg="http://www.w3.org/2000/svg"
   xmlns="http://www.w3.org/2000/svg"
   xmlns:sodipodi="http://sodipodi.sourceforge.net/DTD/sodipodi-0.dtd"
   xmlns:inkscape="http://www.inkscape.org/namespaces/inkscape"
   width="110"
   height="109"
   viewBox="0 0 29.104166 28.839584"
   version="1.1"
   id="svg8"
   inkscape:version="0.92.3 (2405546, 2018-03-11)"
   sodipodi:docname="general_category.svg">
  <defs
     id="defs2" />
  <sodipodi:namedview
     id="base"
     pagecolor="#ffffff"
     bordercolor="#666666"
     borderopacity="1.0"
     inkscape:pageopacity="0.0"
     inkscape:pageshadow="2"
     inkscape:zoom="2.8"
     inkscape:cx="20.194544"
     inkscape:cy="44.872896"
     inkscape:document-units="mm"
     inkscape:current-layer="layer1"
     showgrid="false"
     units="px"
     inkscape:window-width="1920"
     inkscape:window-height="1046"
     inkscape:window-x="1589"
     inkscape:window-y="-11"
     inkscape:window-maximized="1" />
  <metadata
     id="metadata5">
    <rdf:RDF>
      <cc:Work
         rdf:about="">
        <dc:format>image/svg+xml</dc:format>
        <dc:type
           rdf:resource="http://purl.org/dc/dcmitype/StillImage" />
        <dc:title></dc:title>
      </cc:Work>
    </rdf:RDF>
  </metadata>
  <g
     inkscape:label="Layer 1"
     inkscape:groupmode="layer"
     id="layer1"
     transform="translate(0,-268.1604)">
    <circle
       style="opacity:1;fill:#412414;fill-opacity:1;fill-rule:nonzero;stroke:none;stroke-width:0.11905643;stroke-linecap:round;stroke-linejoin:round;stroke-miterlimit:4;stroke-dasharray:none;stroke-opacity:1;paint-order:normal"
       id="path828"
       cx="14.552083"
       cy="282.44791"
       r="14.552083" />
    <path
       id="path1019"
       d="m 5.7410336,281.5309 c -0.440864,-0.24694 -0.573125,-0.78474 -0.326253,-1.20797 l 1.32259,-2.28367 c 0.09698,-0.17629 0.246872,-0.29959 0.414411,-0.37031 l 6.9039154,-3.8796 c 0.141065,-0.10564 0.317422,-0.15863 0.502586,-0.15863 0.185154,0 0.361507,0.053 0.502582,0.15863 l 6.96564,3.91486 c 0.167526,0.0883 0.308591,0.22928 0.387958,0.4056 l 1.278503,2.22195 c 0.246873,0.42323 0.09698,0.9611 -0.317421,1.19914 l -0.881725,0.5114 v 4.37339 c 0,0.33505 -0.185154,0.62601 -0.467315,0.77591 l -6.96564,3.91486 c -0.141065,0.10564 -0.317421,0.15863 -0.502582,0.15863 -0.185154,0 -0.361507,-0.053 -0.502586,-0.15863 L 7.0900596,287.1916 c -0.282163,-0.14997 -0.467314,-0.44086 -0.467314,-0.77591 v -4.88479 c -0.264501,0.14996 -0.599575,0.15863 -0.881725,0 m 8.8172624,-6.00455 v 0 5.90757 0 l 5.25509,-2.95377 -5.25509,-2.9538 m -6.1720834,10.3691 5.2903584,2.98023 v -5.91637 l -5.2903584,-2.97143 v 5.90757 m 12.3441664,0 v -2.83916 l -4.408629,2.557 c -0.290962,0.15863 -0.617211,0.14996 -0.881729,0.01 v 3.25356 l 5.290358,-2.98023 m -4.54089,-2.24958 5.53724,-3.20064 -0.5114,-0.89055 -5.53724,3.20064 z"
       inkscape:connector-curvature="0"
       style="fill:#ffffff;stroke-width:0.88172626" />
  </g>
</svg>
