<?xml version="1.0" encoding="UTF-8" standalone="no"?>
<!-- Created with Inkscape (http://www.inkscape.org/) -->

<svg
   xmlns:dc="http://purl.org/dc/elements/1.1/"
   xmlns:cc="http://creativecommons.org/ns#"
   xmlns:rdf="http://www.w3.org/1999/02/22-rdf-syntax-ns#"
   xmlns:svg="http://www.w3.org/2000/svg"
   xmlns="http://www.w3.org/2000/svg"
   xmlns:sodipodi="http://sodipodi.sourceforge.net/DTD/sodipodi-0.dtd"
   xmlns:inkscape="http://www.inkscape.org/namespaces/inkscape"
   width="110"
   height="109"
   viewBox="0 0 29.104166 28.839584"
   version="1.1"
   id="svg8"
   inkscape:version="0.92.3 (2405546, 2018-03-11)"
   sodipodi:docname="gift_category.svg">
  <defs
     id="defs2" />
  <sodipodi:namedview
     id="base"
     pagecolor="#ffffff"
     bordercolor="#666666"
     borderopacity="1.0"
     inkscape:pageopacity="0.0"
     inkscape:pageshadow="2"
     inkscape:zoom="2.8"
     inkscape:cx="20.194544"
     inkscape:cy="44.872896"
     inkscape:document-units="mm"
     inkscape:current-layer="layer1"
     showgrid="false"
     units="px"
     inkscape:window-width="1920"
     inkscape:window-height="1046"
     inkscape:window-x="1589"
     inkscape:window-y="-11"
     inkscape:window-maximized="1" />
  <metadata
     id="metadata5">
    <rdf:RDF>
      <cc:Work
         rdf:about="">
        <dc:format>image/svg+xml</dc:format>
        <dc:type
           rdf:resource="http://purl.org/dc/dcmitype/StillImage" />
        <dc:title></dc:title>
      </cc:Work>
    </rdf:RDF>
  </metadata>
  <g
     inkscape:label="Layer 1"
     inkscape:groupmode="layer"
     id="layer1"
     transform="translate(0,-268.1604)">
    <circle
       style="opacity:1;fill:#e63b43;fill-opacity:1;fill-rule:nonzero;stroke:none;stroke-width:0.11905643;stroke-linecap:round;stroke-linejoin:round;stroke-miterlimit:4;stroke-dasharray:none;stroke-opacity:1;paint-order:normal"
       id="path828"
       cx="14.646577"
       cy="282.44791"
       r="14.552083" />
    <path
       id="path1195"
       d="m 12.17152,273.99992 c -1.591106,-0.01 -3.1401226,1.52375 -2.4329636,3.42635 h -2.668683 a 1.6837119,1.6837119 0 0 0 -1.683713,1.68372 v 1.68369 a 0.84185595,0.84185595 0 0 0 0.841858,0.84188 h 7.5767036 v -2.52557 h 1.68371 v 2.52557 h 7.576703 a 0.84185595,0.84185595 0 0 0 0.841858,-0.84188 v -1.68369 a 1.6837119,1.6837119 0 0 0 -1.683713,-1.68372 h -2.668683 c 0.98497,-2.75288 -2.719194,-4.69755 -4.428161,-2.32353 l -0.479859,0.6398 -0.479857,-0.65663 c -0.53037,-0.74925 -1.262784,-1.07759 -1.9952,-1.08599 m -0.05049,1.74262 c 0.749251,0 1.128088,0.90921 0.597717,1.43958 -0.530368,0.53038 -1.439572,0.15146 -1.439572,-0.5977 a 0.84185595,0.84185595 0 0 1 0.841855,-0.84188 m 5.051135,0 c 0.749252,0 1.128089,0.90921 0.597718,1.43958 -0.530368,0.53038 -1.439572,0.15146 -1.439572,-0.5977 a 0.84185595,0.84185595 0 0 1 0.841854,-0.84188 M 6.2280394,282.4774 v 6.73486 a 1.6837119,1.6837119 0 0 0 1.68371,1.68369 H 21.381446 a 1.6837119,1.6837119 0 0 0 1.68371,-1.68369 v -6.73486 h -7.576704 v 6.73486 h -1.683709 v -6.73486 z"
       inkscape:connector-curvature="0"
       style="fill:#ffffff;stroke-width:0.84185594" />
  </g>
</svg>
