<?xml version="1.0" encoding="UTF-8" standalone="no"?>
<!-- Created with Inkscape (http://www.inkscape.org/) -->

<svg
   xmlns:dc="http://purl.org/dc/elements/1.1/"
   xmlns:cc="http://creativecommons.org/ns#"
   xmlns:rdf="http://www.w3.org/1999/02/22-rdf-syntax-ns#"
   xmlns:svg="http://www.w3.org/2000/svg"
   xmlns="http://www.w3.org/2000/svg"
   xmlns:sodipodi="http://sodipodi.sourceforge.net/DTD/sodipodi-0.dtd"
   xmlns:inkscape="http://www.inkscape.org/namespaces/inkscape"
   width="110"
   height="109"
   viewBox="0 0 29.104166 28.839584"
   version="1.1"
   id="svg8"
   inkscape:version="0.92.3 (2405546, 2018-03-11)"
   sodipodi:docname="industry_category.svg">
  <defs
     id="defs2" />
  <sodipodi:namedview
     id="base"
     pagecolor="#ffffff"
     bordercolor="#666666"
     borderopacity="1.0"
     inkscape:pageopacity="0.0"
     inkscape:pageshadow="2"
     inkscape:zoom="2.8"
     inkscape:cx="20.194544"
     inkscape:cy="44.872896"
     inkscape:document-units="mm"
     inkscape:current-layer="layer1"
     showgrid="false"
     units="px"
     inkscape:window-width="1920"
     inkscape:window-height="1046"
     inkscape:window-x="1589"
     inkscape:window-y="-11"
     inkscape:window-maximized="1" />
  <metadata
     id="metadata5">
    <rdf:RDF>
      <cc:Work
         rdf:about="">
        <dc:format>image/svg+xml</dc:format>
        <dc:type
           rdf:resource="http://purl.org/dc/dcmitype/StillImage" />
        <dc:title></dc:title>
      </cc:Work>
    </rdf:RDF>
  </metadata>
  <g
     inkscape:label="Layer 1"
     inkscape:groupmode="layer"
     id="layer1"
     transform="translate(0,-268.1604)">
    <circle
       style="opacity:1;fill:#29aae3;fill-opacity:1;fill-rule:nonzero;stroke:none;stroke-width:0.11905643;stroke-linecap:round;stroke-linejoin:round;stroke-miterlimit:4;stroke-dasharray:none;stroke-opacity:1;paint-order:normal"
       id="path828"
       cx="14.552083"
       cy="282.44791"
       r="14.552083" />
    <path
       id="path1052"
       d="M 20.108333,285.22603 H 18.25625 v 1.85209 h 1.852083 m 0,-5.55625 H 18.25625 v 1.85206 h 1.852083 m 1.852084,5.55625 h -7.408334 v -1.85206 h 1.852083 v -1.85209 h -1.852083 v -1.8521 h 1.852083 v -1.85206 h -1.852083 v -1.85209 h 7.408334 m -9.260418,-1.8521 h -1.852083 v -1.85206 h 1.852083 m 0,5.55625 h -1.852083 v -1.85209 h 1.852083 m 0,5.55625 h -1.852083 v -1.8521 h 1.852083 m 0,5.55625 h -1.852083 v -1.85206 h 1.852083 M 8.9958328,277.81768 H 7.1437493 v -1.85206 h 1.8520835 m 0,5.55625 H 7.1437493 v -1.85209 h 1.8520835 m 0,5.55625 H 7.1437493 v -1.8521 h 1.8520835 m 0,5.55625 H 7.1437493 v -1.85206 h 1.8520835 m 5.5562502,-9.26044 v -3.70415 H 5.2916662 v 16.66875 H 23.8125 v -12.9646 z"
       inkscape:connector-curvature="0"
       style="fill:#ffffff;stroke-width:0.9260416" />
  </g>
</svg>
