<?xml version="1.0" encoding="UTF-8" standalone="no"?>
<!-- Created with Inkscape (http://www.inkscape.org/) -->

<svg
   xmlns:dc="http://purl.org/dc/elements/1.1/"
   xmlns:cc="http://creativecommons.org/ns#"
   xmlns:rdf="http://www.w3.org/1999/02/22-rdf-syntax-ns#"
   xmlns:svg="http://www.w3.org/2000/svg"
   xmlns="http://www.w3.org/2000/svg"
   xmlns:sodipodi="http://sodipodi.sourceforge.net/DTD/sodipodi-0.dtd"
   xmlns:inkscape="http://www.inkscape.org/namespaces/inkscape"
   width="110"
   height="109"
   viewBox="0 0 29.104166 28.839584"
   version="1.1"
   id="svg8"
   inkscape:version="0.92.3 (2405546, 2018-03-11)"
   sodipodi:docname="other_category.svg">
  <defs
     id="defs2" />
  <sodipodi:namedview
     id="base"
     pagecolor="#ffffff"
     bordercolor="#666666"
     borderopacity="1.0"
     inkscape:pageopacity="0.0"
     inkscape:pageshadow="2"
     inkscape:zoom="2.8"
     inkscape:cx="20.194544"
     inkscape:cy="44.872896"
     inkscape:document-units="mm"
     inkscape:current-layer="layer1"
     showgrid="false"
     units="px"
     inkscape:window-width="1920"
     inkscape:window-height="1046"
     inkscape:window-x="1589"
     inkscape:window-y="-11"
     inkscape:window-maximized="1" />
  <metadata
     id="metadata5">
    <rdf:RDF>
      <cc:Work
         rdf:about="">
        <dc:format>image/svg+xml</dc:format>
        <dc:type
           rdf:resource="http://purl.org/dc/dcmitype/StillImage" />
        <dc:title></dc:title>
      </cc:Work>
    </rdf:RDF>
  </metadata>
  <g
     inkscape:label="Layer 1"
     inkscape:groupmode="layer"
     id="layer1"
     transform="translate(0,-268.1604)">
    <circle
       style="opacity:1;fill:#932b8e;fill-opacity:1;fill-rule:nonzero;stroke:none;stroke-width:0.11905643;stroke-linecap:round;stroke-linejoin:round;stroke-miterlimit:4;stroke-dasharray:none;stroke-opacity:1;paint-order:normal"
       id="path828"
       cx="14.646577"
       cy="282.44791"
       r="14.552083" />
    <path
       id="path1217"
       d="m 13.720536,288.00415 h 1.852081 v -1.85209 h -1.852081 v 1.85209 m 0.926041,-14.81665 a 9.2604177,9.2604177 0 0 0 -9.2604166,9.2604 9.2604177,9.2604177 0 0 0 9.2604166,9.26041 9.2604177,9.2604177 0 0 0 9.260416,-9.26041 9.2604177,9.2604177 0 0 0 -9.260416,-9.2604 m 0,16.66875 c -4.083846,0 -7.4083356,-3.32451 -7.4083356,-7.40835 0,-4.08383 3.3244896,-7.40834 7.4083356,-7.40834 4.083842,0 7.408335,3.32451 7.408335,7.40834 0,4.08384 -3.324493,7.40835 -7.408335,7.40835 m 0,-12.9646 a 3.704167,3.704167 0 0 0 -3.704166,3.70416 h 1.852081 a 1.8520836,1.8520836 0 0 1 1.852085,-1.85206 1.8520836,1.8520836 0 0 1 1.852084,1.85206 c 0,1.85209 -2.778125,1.62057 -2.778125,4.63022 h 1.852081 c 0,-2.08359 2.778126,-2.31511 2.778126,-4.63022 a 3.704167,3.704167 0 0 0 -3.704166,-3.70416 z"
       inkscape:connector-curvature="0"
       style="fill:#ffffff;stroke-width:0.92604172" />
  </g>
</svg>
