<?xml version="1.0" encoding="UTF-8" standalone="no"?>
<!-- Created with Inkscape (http://www.inkscape.org/) -->

<svg
   xmlns:dc="http://purl.org/dc/elements/1.1/"
   xmlns:cc="http://creativecommons.org/ns#"
   xmlns:rdf="http://www.w3.org/1999/02/22-rdf-syntax-ns#"
   xmlns:svg="http://www.w3.org/2000/svg"
   xmlns="http://www.w3.org/2000/svg"
   xmlns:sodipodi="http://sodipodi.sourceforge.net/DTD/sodipodi-0.dtd"
   xmlns:inkscape="http://www.inkscape.org/namespaces/inkscape"
   width="110"
   height="109"
   viewBox="0 0 29.104166 28.839584"
   version="1.1"
   id="svg8"
   inkscape:version="0.92.3 (2405546, 2018-03-11)"
   sodipodi:docname="sports_category.svg">
  <defs
     id="defs2" />
  <sodipodi:namedview
     id="base"
     pagecolor="#ffffff"
     bordercolor="#666666"
     borderopacity="1.0"
     inkscape:pageopacity="0.0"
     inkscape:pageshadow="2"
     inkscape:zoom="2.8"
     inkscape:cx="20.194544"
     inkscape:cy="44.872896"
     inkscape:document-units="mm"
     inkscape:current-layer="layer1"
     showgrid="false"
     units="px"
     inkscape:window-width="1920"
     inkscape:window-height="1046"
     inkscape:window-x="1589"
     inkscape:window-y="-11"
     inkscape:window-maximized="1" />
  <metadata
     id="metadata5">
    <rdf:RDF>
      <cc:Work
         rdf:about="">
        <dc:format>image/svg+xml</dc:format>
        <dc:type
           rdf:resource="http://purl.org/dc/dcmitype/StillImage" />
        <dc:title></dc:title>
      </cc:Work>
    </rdf:RDF>
  </metadata>
  <g
     inkscape:label="Layer 1"
     inkscape:groupmode="layer"
     id="layer1"
     transform="translate(0,-268.1604)">
    <circle
       style="opacity:1;fill:#aa272d;fill-opacity:1;fill-rule:nonzero;stroke:none;stroke-width:0.11905643;stroke-linecap:round;stroke-linejoin:round;stroke-miterlimit:4;stroke-dasharray:none;stroke-opacity:1;paint-order:normal"
       id="path828"
       cx="14.646577"
       cy="282.44791"
       r="14.552083" />
    <path
       id="path1140"
       d="m 5.7054354,284.88212 c 0.555352,-0.2036 1.129213,-0.3054 1.740099,-0.3054 1.240286,0 2.323223,0.38876 3.2488076,1.16625 l -2.9063396,2.90634 c -0.98112,-1.11071 -1.675311,-2.37876 -2.082567,-3.76716 M 17.941676,280.4116 c 1.823407,1.36058 3.794902,1.69379 5.905238,0.99963 0.02764,0.1945 0.05552,0.54608 0.05552,1.03665 0,0.95335 -0.231411,2.01777 -0.666421,3.19326 -0.435025,1.16625 -0.971863,2.11033 -1.601263,2.82304 l -5.858959,-5.84045 2.16587,-2.21213 m -6.284723,6.331 c 0.981119,1.41614 1.184747,2.96186 0.60163,4.64645 -1.314334,-0.37949 -2.4898246,-0.97189 -3.4709476,-1.78639 l 2.8693176,-2.86006 m 3.165503,-3.16552 5.840442,5.85895 c -2.008518,1.75862 -4.368763,2.4991 -7.052963,2.21217 0.194365,-0.6109 0.2962,-1.27732 0.2962,-1.99926 0,-0.57386 -0.129577,-1.24955 -0.388746,-2.01777 -0.259153,-0.76826 -0.564605,-1.39763 -0.907072,-1.8882 l 2.212149,-2.16589 m -3.128481,1.18477 c -0.860793,-0.76826 -1.8604246,-1.24955 -2.9896406,-1.47169 -1.129216,-0.21305 -2.212149,-0.14798 -3.25806,0.20359 -0.02764,-0.20359 -0.05555,-0.55535 -0.05555,-1.04591 0,-0.95335 0.231411,-2.01777 0.666422,-3.19326 0.435024,-1.16626 0.971863,-2.11034 1.601262,-2.82304 l 6.1644006,6.19216 -2.128848,2.13811 m 6.247705,-6.26622 c -1.240286,-1.52721 -1.527218,-3.19326 -0.860796,-4.98889 0.573864,0.14798 1.231029,0.42574 1.971499,0.85152 0.731213,0.4165 1.332843,0.83304 1.795634,1.23104 l -2.906337,2.90633 m 5.646071,1.52721 c -0.555351,0.1945 -1.129215,0.2963 -1.740102,0.2963 -1.008885,0 -1.980752,-0.2963 -2.906337,-0.90706 l 2.860059,-2.82304 c 0.814517,1.01813 1.406891,2.15661 1.78638,3.4339 m -8.765295,1.60127 -6.1921696,-6.16438 c 2.0085206,-1.75862 4.3687656,-2.4991 7.0622186,-2.21217 -0.203635,0.6109 -0.305435,1.27732 -0.305435,1.99926 0,0.66642 0.148082,1.41614 0.453538,2.25845 0.305435,0.83301 0.657165,1.49944 1.119959,1.99 z"
       inkscape:connector-curvature="0"
       style="fill:#ffffff;stroke-width:0.92558563" />
  </g>
</svg>
